<svg xmlns="http://www.w3.org/2000/svg" viewBox="0 0 24 24">
  <defs>
    <linearGradient id="arthur-gradient" gradientUnits="userSpaceOnUse" x1="4" y1="3" x2="15" y2="22">
      <stop offset="0" stop-color="#36b9d8"/>
      <stop offset=".24" stop-color="#0ea5e9"/>
      <stop offset=".42" stop-color="#0078d4"/>
      <stop offset=".58" stop-color="#5b5fc7"/>
      <stop offset=".78" stop-color="#8250df"/>
      <stop offset="1" stop-color="#e85aad"/>
    </linearGradient>
    <filter id="ribbon-depth" x="-20%" y="-20%" width="140%" height="140%">
      <feDropShadow dx="0" dy=".35" stdDeviation=".35" flood-color="#111827" flood-opacity=".34"/>
    </filter>
  </defs>
  <path
    fill="url(#arthur-gradient)"
    fill-rule="evenodd"
    filter="url(#ribbon-depth)"
    d="M10.4 2.4h3.2a8 8 0 0 1 8 8v3.2a8 8 0 0 1-8 8h-3.2a8 8 0 0 1-8-8v-3.2a8 8 0 0 1 8-8Zm-.1 5.2a2.7 2.7 0 0 0-2.7 2.7v3.4a2.7 2.7 0 0 0 2.7 2.7h3.4a2.7 2.7 0 0 0 2.7-2.7v-3.4a2.7 2.7 0 0 0-2.7-2.7h-3.4Z"
  />
</svg>
